# xmcd
#
# Track frame offsets: 
#        150
#        19023
#        33543
#        49070
#        64087
#        82069
#        97211
#        108334
#        122526
#        140636
#        156282
#        172520
#
# Disc length: 2582 seconds
#
# Revision: 0
# Processed by: cddbd v1.5.2PL0 Copyright (c) Steve Scherf et al.
# Submitted via: ExactAudioCopy v0.99pb4
#
DISCID=9c0a140c
DTITLE=Various Artist - All Star Country [CD2]
DYEAR=1988
DGENRE=Country
TTITLE0=Alabama - (There's a) Fire in the Night
TTITLE1=The Judds - Mama He's Crazy
TTITLE2=Holly Dunn - Daddy's Hands
TTITLE3=Nitty Gritty Dirt Band - Fishin' in the Dark
TTITLE4=T. Graham Brown - Don't go to Strangers
TTITLE5=Bellamy Brothers - I Need More of You
TTITLE6=Hank Williams, Jr. - Mind Your Own Business
TTITLE7=Barbara Mandrell - No One Mends a Broken Heart Like You
TTITLE8=Steve Wariner - You Can Dream of Me
TTITLE9=Highway 101 - The Bed You Made for Me
TTITLE10=Michael Johnson - Give Me Wings
TTITLE11=Ronnie Milsap - How Do I turn You On
EXTD=
EXTT0=
EXTT1=
EXTT2=
EXTT3=
EXTT4=
EXTT5=
EXTT6=
EXTT7=
EXTT8=
EXTT9=
EXTT10=
EXTT11=
PLAYORDER=
